<svg version="1.1" viewBox="0.000000 0.000000 96.860000 139.900000" xmlns="http://www.w3.org/2000/svg" xmlns:xlink="http://www.w3.org/1999/xlink" id="Layer_1" overflow="hidden"><path d=" M 48.430000 97.949997 C 63.893974 97.949997 76.430000 85.413971 76.430000 69.949997 L 76.430000 37.950001 C 76.430000 22.486029 63.893974 9.950001 48.430000 9.950001 C 32.966026 9.950001 20.430000 22.486029 20.430000 37.950001 L 20.430000 69.949997 C 20.430000 85.413971 32.966026 97.949997 48.430000 97.949997 Z M 36.430000 61.950001 L 24.430000 61.950001 L 24.430000 57.950001 L 36.430000 57.950001 C 38.639141 57.950001 40.430000 56.159142 40.430000 53.950001 C 40.430000 51.740860 38.639141 49.950001 36.430000 49.950001 L 24.430000 49.950001 L 24.430000 45.950001 L 36.430000 45.950001 C 38.639141 45.950001 40.430000 44.159142 40.430000 41.950001 C 40.430000 39.740860 38.639141 37.950001 36.430000 37.950001 L 24.430000 37.950001 C 24.430000 24.695168 35.175167 13.950001 48.430000 13.950001 C 61.684834 13.950001 72.430000 24.695168 72.430000 37.950001 L 60.430000 37.950001 C 58.220860 37.950001 56.430000 39.740860 56.430000 41.950001 C 56.430000 44.159142 58.220860 45.950001 60.430000 45.950001 L 72.430000 45.950001 L 72.430000 49.950001 L 60.430000 49.950001 C 58.220860 49.950001 56.430000 51.740860 56.430000 53.950001 C 56.430000 56.159142 58.220860 57.950001 60.430000 57.950001 L 72.430000 57.950001 L 72.430000 61.950001 L 60.430000 61.950001 C 58.220860 61.950001 56.430000 63.740860 56.430000 65.949997 C 56.430000 68.159134 58.220860 69.949997 60.430000 69.949997 L 72.430000 69.949997 C 72.430000 83.204834 61.684834 93.949997 48.430000 93.949997 C 35.175167 93.949997 24.430000 83.204834 24.430000 69.949997 L 36.430000 69.949997 C 38.639141 69.949997 40.430000 68.159134 40.430000 65.949997 C 40.430000 63.740856 38.639141 61.949997 36.430000 61.949997 Z" stroke="none" stroke-width="1.000000" stroke-dasharray="" stroke-dashoffset="1.000000" fill="#01745E" fill-opacity="1.000000"/><path d=" M 86.430000 69.949997 L 82.430000 69.949997 C 82.430000 88.727676 67.207680 103.949997 48.430000 103.949997 C 29.652319 103.949997 14.430000 88.727676 14.430000 69.949997 L 10.430000 69.949997 C 10.428581 90.160629 26.247377 106.836281 46.430000 107.899994 L 46.430000 125.949997 L 32.430000 125.949997 L 32.430000 129.949997 L 64.430000 129.949997 L 64.430000 125.949997 L 50.430000 125.949997 L 50.430000 107.900002 C 70.612625 106.836281 86.431419 90.160637 86.430000 69.950005 Z" stroke="none" stroke-width="1.000000" stroke-dasharray="" stroke-dashoffset="1.000000" fill="#01745E" fill-opacity="1.000000"/></svg>